<svg xmlns="http://www.w3.org/2000/svg" version="1.1" xmlns:xlink="http://www.w3.org/1999/xlink" width="512" height="512" x="0" y="0" viewBox="0 0 512 512" style="enable-background:new 0 0 512 512" xml:space="preserve" class=""><g><path d="M256 0C114.838 0 0 114.838 0 256s114.838 256 256 256 256-114.837 256-256S397.163 0 256 0zm0 460.8c-112.925 0-204.8-91.875-204.8-204.8S143.075 51.2 256 51.2 460.8 143.075 460.8 256 368.925 460.8 256 460.8zm25.6-307.2c0 14.137-11.461 25.6-25.6 25.6s-25.6-11.462-25.6-25.6c0-14.139 11.461-25.6 25.6-25.6s25.6 11.461 25.6 25.6zm0 76.8v128c0 14.138-11.462 25.6-25.6 25.6-14.137 0-25.6-11.462-25.6-25.6v-128c0-14.137 11.463-25.6 25.6-25.6 14.138 0 25.6 11.462 25.6 25.6z" fill="#5f6368" opacity="1" data-original="#000000" class=""></path></g></svg>