<svg xmlns="http://www.w3.org/2000/svg" version="1.1" xmlns:xlink="http://www.w3.org/1999/xlink" width="512" height="512" x="0" y="0" viewBox="0 0 512 512" style="enable-background:new 0 0 512 512" xml:space="preserve" class=""><g><path fill="#af4c4c" fill-rule="evenodd" d="M256 258.774a86.377 86.377 0 1 0-86.394-86.374A86.47 86.47 0 0 0 256 258.774zm0-226.767c123.521 0 224 100.452 224 223.981a222.534 222.534 0 0 1-37 123.171 122.972 122.972 0 0 0-121.273-103.453H190.268A122.972 122.972 0 0 0 69 379.159a222.6 222.6 0 0 1-37-123.171C32 132.459 132.5 32.007 256 32.007zm0 479.969c-141.162 0-256-114.813-256-255.988S114.836 0 256 0s256 114.812 256 255.988-114.841 255.988-256 255.988z" opacity="1" data-original="#4caf50" class=""></path></g></svg>