<svg xmlns="http://www.w3.org/2000/svg" version="1.1" xmlns:xlink="http://www.w3.org/1999/xlink" width="512" height="512" x="0" y="0" viewBox="0 0 512 512" style="enable-background:new 0 0 512 512" xml:space="preserve" class=""><g><g fill="#4caf50"><path d="M135.703 245.762c-7.426 0-14.637-3.864-18.562-10.774-5.825-10.218-2.239-23.254 7.98-29.101l197.95-112.852c10.218-5.867 23.253-2.281 29.1 7.977 5.825 10.218 2.24 23.254-7.98 29.101L146.238 242.965a21.195 21.195 0 0 1-10.535 2.797zM333.633 421.762c-3.586 0-7.211-.899-10.54-2.797L125.142 306.113c-10.22-5.824-13.801-18.86-7.977-29.101 5.8-10.239 18.856-13.844 29.098-7.977l197.953 112.852c10.219 5.824 13.8 18.86 7.976 29.101-3.945 6.91-11.156 10.774-18.558 10.774zm0 0" fill="#01875f" opacity="1" data-original="#4caf50" class=""></path><path d="M469.332 85.332c0 47.129-38.203 85.336-85.332 85.336s-85.332-38.207-85.332-85.336S336.871 0 384 0s85.332 38.203 85.332 85.332zM469.332 426.668C469.332 473.797 431.129 512 384 512s-85.332-38.203-85.332-85.332c0-47.129 38.203-85.336 85.332-85.336s85.332 38.207 85.332 85.336zM170.668 256c0 47.129-38.207 85.332-85.336 85.332S0 303.129 0 256s38.203-85.332 85.332-85.332c47.129 0 85.336 38.203 85.336 85.332zm0 0" fill="#01875f" opacity="1" data-original="#4caf50" class=""></path></g></g></svg>